<?xml version="1.0" encoding="iso-8859-1"?>
<!-- Generator: Adobe Illustrator 19.0.0, SVG Export Plug-In . SVG Version: 6.00 Build 0)  -->
<svg version="1.1" id="Layer_1" xmlns="http://www.w3.org/2000/svg" xmlns:xlink="http://www.w3.org/1999/xlink" x="0px" y="0px"
	 viewBox="0 0 477.878 477.878" style="enable-background:new 0 0 477.878 477.878;" xml:space="preserve">
<g transform="translate(0 -540.36)">
	<path style="fill:#EA6153;" d="M408.54,948.9l-73.299-32.068l5.064,79.847l-57.911-55.204l-22.55,76.764l-35.538-71.682
		l-47.445,64.422l-8.878-79.513l-66.617,44.309l18.853-77.754l-77.754,18.853l44.309-66.617L7.26,841.377l64.422-47.445L0,758.395
		l76.764-22.55L21.56,677.933l79.847,5.064l-32.068-73.299l73.299,32.068l-5.064-79.847l57.911,55.204l22.55-76.764l35.538,71.682
		l47.445-64.422l8.878,79.513l66.617-44.309l-18.853,77.754l77.754-18.853l-44.309,66.617l79.513,8.878l-64.422,47.445
		l71.682,35.538l-76.764,22.55l55.204,57.911l-79.847-5.064L408.54,948.9z"/>
	<g>
		<path style="fill:#BB4E42;" d="M158.345,738.599c0,3.317-1.151,6.825-3.453,10.523c-3.045,4.876-7.468,8.656-13.269,11.339
			c-5.347,2.465-11.094,3.698-17.239,3.698h-8.973l9.843-27.898h9.816l-8.348,23.547c3.571,0,7.106-1.097,10.604-3.29
			c3.517-2.193,6.082-4.903,7.695-8.13c1.45-2.846,2.175-5.221,2.175-7.124c0-3.118-0.87-5.357-2.61-6.716
			c-1.559-1.196-3.952-1.795-7.178-1.795h-26.293l4.187-6.852h26.321c4.55,0,8.338,0.961,11.366,2.882
			C156.559,731.049,158.345,734.32,158.345,738.599L158.345,738.599z"/>
		<path style="fill:#BB4E42;" d="M177.262,734.52c0,1.813-0.707,3.354-2.121,4.622c-1.396,1.269-3.082,1.903-5.057,1.903
			c-2.012,0-3.725-0.635-5.139-1.903c-1.396-1.269-2.094-2.81-2.094-4.622c0-1.795,0.698-3.326,2.094-4.595
			c1.414-1.269,3.127-1.903,5.139-1.903c1.976,0,3.662,0.634,5.057,1.903C176.556,731.194,177.262,732.725,177.262,734.52z
			 M179.22,759.807c-0.471,1.595-1.45,2.773-2.937,3.535c-1.069,0.544-2.23,0.816-3.48,0.816h-10.74
			c-2.592,0-3.888-1.088-3.888-3.263c0-0.616,0.127-1.278,0.381-1.985l4.731-13.242h9.87l-5.03,14.139L179.22,759.807
			L179.22,759.807z"/>
		<path style="fill:#BB4E42;" d="M211.325,759.807c-0.073,1.214-0.77,2.248-2.094,3.1c-1.305,0.834-2.737,1.251-4.296,1.251h-20.665
			c-3.97,0-5.955-1.214-5.955-3.644c0-0.218,0.018-0.453,0.054-0.707c0.145-1.088,0.725-1.931,1.74-2.529
			c0.87-0.526,1.867-0.779,2.991-0.761c1.958,0.054,4.613,1.133,7.967,3.236c0.961-1.196,1.441-2.411,1.441-3.643
			c0-0.616-0.39-2.021-1.169-4.215l-3.073,2.801h-5.438l7.233-6.689c-0.326-0.562-0.553-1.024-0.68-1.387
			c-0.236-0.671-0.363-1.432-0.381-2.284l6.689-7.124c3.009,0.508,4.514,1.876,4.514,4.106c0,1.305-0.39,2.511-1.169,3.616
			c0.671,1.776,1.35,3.553,2.039,5.329c0.834,2.284,1.251,4.133,1.251,5.547c0,1.559-0.616,2.891-1.849,3.997H211.325
			L211.325,759.807z"/>
		<path style="fill:#BB4E42;" d="M244.545,759.807c-0.399,1.414-1.233,2.511-2.502,3.29c-1.16,0.707-2.511,1.06-4.051,1.06h-16.369
			c-3.118,0-5.737-0.526-7.858-1.577c-2.683-1.323-4.024-3.317-4.024-5.982c0-0.29,0.018-0.589,0.054-0.897
			c0.363-3.245,2.048-5.783,5.057-7.613c2.647-1.613,5.773-2.42,9.381-2.42h6.852c1.541,0,2.855,0.489,3.943,1.468
			c1.088,0.979,1.631,2.175,1.631,3.589c0,1.432-0.553,2.647-1.659,3.644c-1.088,0.997-2.393,1.496-3.915,1.495
			c-1.541,0-2.855-0.498-3.943-1.495c-1.07-1.015-1.595-2.248-1.577-3.698c0,0,0-0.218,0-0.653h-3.29l-2.121,6.009
			c-0.181,0.508-0.272,0.97-0.272,1.387c0,1.595,1.26,2.393,3.78,2.393H244.545L244.545,759.807z"/>
		<path style="fill:#BB4E42;" d="M289.621,745.668c-0.725,2.9-2.9,4.35-6.526,4.35h-17.021c0.598,0.399,1.088,1.133,1.468,2.202
			c0.381,1.051,0.535,1.967,0.462,2.746c-0.254,3.027-1.586,5.402-3.997,7.124c-2.302,1.65-5.293,2.483-8.973,2.502
			c-4.278,0.036-7.568-0.807-9.87-2.529c-2.048-1.523-3.073-3.526-3.073-6.009c0-0.489,0.045-0.979,0.136-1.468
			c0.471-2.737,1.831-4.885,4.079-6.444c2.393-1.65,5.583-2.474,9.571-2.474L289.621,745.668L289.621,745.668z M259.983,750.019
			h-6.227l-2.447,6.961c-0.127,0.363-0.19,0.707-0.19,1.033c0,1.559,1.45,2.338,4.351,2.338c0.344,0,0.644-0.009,0.897-0.027
			L259.983,750.019L259.983,750.019z"/>
		<path style="fill:#BB4E42;" d="M311.04,759.807c-0.381,1.505-1.215,2.647-2.502,3.426c-1.015,0.616-2.094,0.925-3.236,0.925
			h-11.366c-2.665,0-3.997-0.852-3.997-2.556c-1.414,1.704-3.326,2.556-5.737,2.556h-4.786c-1.468,0-2.61-0.381-3.426-1.142
			c-0.761-0.707-1.142-1.641-1.142-2.801c0-0.653,0.127-1.323,0.381-2.012l4.568-12.535h9.87l-5.085,14.139h5.52l5.057-14.139h9.761
			l-4.949,14.139H311.04L311.04,759.807z"/>
		<path style="fill:#BB4E42;" d="M347.414,759.807c-0.471,1.595-1.514,2.773-3.127,3.535c-1.142,0.544-2.366,0.816-3.671,0.816
			h-10.849c-2.483,0-3.725-0.816-3.725-2.447c0-0.544,0.127-1.178,0.381-1.903l2.066-5.846l-9.354,7.912
			c-2.193,1.523-3.997,2.284-5.411,2.284h-5.003l6.499-18.49h9.816l-3.073,8.701l8.293-6.798c2.248-1.831,4.686-2.71,7.314-2.637
			c1.776,0.073,2.665,1.015,2.665,2.828c0,0.671-0.145,1.423-0.435,2.257l-3.508,9.789L347.414,759.807L347.414,759.807z"/>
		<path style="fill:#BB4E42;" d="M370.519,759.807c-0.852,2.9-3.118,4.351-6.798,4.351h-13.867c-2.683,0-4.024-0.943-4.024-2.828
			c0-0.471,0.1-0.979,0.299-1.523l3.453-9.789h-4.459l1.713-4.35c3.172-0.816,5.529-1.858,7.07-3.127
			c1.74-1.432,3.598-4.024,5.574-7.777h5.302l-3.834,10.904h7.015c-1.124,2.9-3.408,4.35-6.852,4.35h-1.795l-3.399,9.789H370.519z"
			/>
		<path style="fill:#BB4E42;" d="M124.923,814.798v12.091h-20.852v-12.091H124.923z"/>
		<path style="fill:#BB4E42;" d="M195.242,830.448v18.023h-40.244l19.985-37.506l0.684-1.278c0.548-1.004,0.821-1.992,0.821-2.966
			c0-2.464-1.445-3.696-4.335-3.696c-1.126,0-2.114,0.426-2.966,1.278c-0.821,0.821-1.232,1.795-1.232,2.92
			c0,1.278,0.548,2.433,1.643,3.468l-7.985,14.236c-3.346-2.068-5.916-4.7-7.711-7.894c-1.795-3.194-2.692-6.723-2.692-10.586
			c0-5.993,2.114-11.118,6.342-15.377c4.228-4.289,9.339-6.434,15.331-6.434c6.023,0,11.133,2.114,15.331,6.342
			c4.228,4.228,6.342,9.369,6.342,15.422c0,3.468-0.776,6.692-2.327,9.673l-7.392,14.373L195.242,830.448L195.242,830.448z"/>
		<path style="fill:#BB4E42;" d="M242.447,786.189v17.886h-15.331l-0.821,2.829c5.597,1.612,9.734,3.939,12.411,6.981
			c3.681,4.137,5.521,9.095,5.521,14.875c0,6.114-2.251,11.194-6.753,15.24c-4.472,4.015-10.114,6.023-16.928,6.023
			c-4.593,0-9.126-1.202-13.597-3.605v-15.331c3.559,1.734,6.692,2.601,9.399,2.601c2.799,0,5.004-0.639,6.616-1.916
			c1.643-1.278,2.464-3.011,2.464-5.202c0-2.464-1.262-4.548-3.787-6.251c-2.494-1.703-5.582-2.555-9.263-2.555
			c-1.399,0-3.255,0.259-5.567,0.776l6.707-32.35L242.447,786.189L242.447,786.189z"/>
		<path style="fill:#BB4E42;" d="M273.5,785.322c4.502,0,8.35,1.597,11.544,4.791c3.194,3.164,4.791,6.996,4.791,11.498
			c0,4.532-1.597,8.396-4.791,11.59c-3.164,3.164-7.012,4.745-11.544,4.745c-4.502,0-8.35-1.597-11.544-4.791
			c-3.164-3.194-4.745-7.042-4.745-11.544c0-4.472,1.597-8.304,4.791-11.498C265.196,786.919,269.029,785.322,273.5,785.322
			L273.5,785.322z M273.546,794.448c-1.977,0-3.665,0.7-5.065,2.099c-1.399,1.399-2.099,3.088-2.099,5.065
			c0,1.977,0.7,3.665,2.099,5.065c1.399,1.399,3.088,2.099,5.065,2.099c1.977,0,3.665-0.7,5.065-2.099
			c1.399-1.399,2.099-3.088,2.099-5.065c0-1.977-0.7-3.666-2.099-5.065C277.211,795.147,275.523,794.448,273.546,794.448z
			 M309.592,786.189l-25.141,62.283h-5.567l25.278-62.283H309.592z M315.661,816.44c4.472,0,8.304,1.597,11.498,4.791
			c3.194,3.194,4.791,7.042,4.791,11.544c0,4.502-1.597,8.35-4.791,11.544c-3.194,3.194-7.027,4.791-11.498,4.791
			c-4.502,0-8.35-1.597-11.544-4.791s-4.791-7.042-4.791-11.544c0-4.502,1.597-8.35,4.791-11.544S311.159,816.44,315.661,816.44
			L315.661,816.44z M315.661,825.566c-1.977,0-3.665,0.7-5.065,2.099c-1.399,1.399-2.099,3.088-2.099,5.065
			c0,2.008,0.7,3.711,2.099,5.11c1.399,1.399,3.088,2.099,5.065,2.099c1.977,0,3.665-0.7,5.065-2.099
			c1.399-1.399,2.099-3.103,2.099-5.11c0-1.977-0.7-3.666-2.099-5.065C319.326,826.266,317.638,825.566,315.661,825.566z"/>
		<path style="fill:#BB4E42;" d="M380.413,814.798v12.091h-20.852v-12.091H380.413z"/>
	</g>
	<path style="fill:#D3574B;" d="M218.034,540.361l-22.551,76.764l-57.768-55.068l4.922,77.59l-0.139-0.06l0.139,2.182l-72.15-31.566
		l30.92,70.676l-0.955-0.06l0.955,2.182l-77.695-4.928l53.051,55.652l-1.58,0.465l1.58,1.656L2.687,757.605l68.996,34.205
		l-1.723,1.268l1.721,0.854L9.759,839.537l77.014,8.598l-1.313,1.975l1.313,0.146l-42.627,64.088l76.072-18.445l-0.547,2.254
		l0.547-0.133l-18.238,75.225l66.004-43.9l8.877,79.514l47.445-64.422l35.537,71.682l22.551-76.764l57.768,55.068l-4.922-77.59
		l0.139,0.06l-0.139-2.182l72.152,31.566l-30.92-70.676l0.955,0.061l-0.955-2.184l77.691,4.928l-53.049-55.652l1.58-0.465
		l-1.58-1.656l74.078-21.762l-68.996-34.205l1.721-1.268l-1.721-0.854l61.922-45.604l-77.014-8.598l1.313-1.975l-1.313-0.146
		l42.625-64.088l-76.07,18.443l0.547-2.254l-0.547,0.133l18.24-75.225l-66.004,43.902l-8.879-79.514l-47.445,64.422L218.034,540.361
		L218.034,540.361z M218.821,549.361l34.199,68.98l45.658-61.994l8.543,76.518l64.109-42.641l-18.145,74.826l74.826-18.143
		l-42.639,64.107l76.518,8.543l-61.996,45.658l68.982,34.199l-73.873,21.701l53.125,55.73l-76.84-4.875l30.861,70.539
		l-70.539-30.859l4.875,76.838l-55.73-53.125l-21.701,73.873l-34.199-68.982l-45.656,61.996l-8.545-76.518l-64.107,42.639
		l18.143-74.824l-74.826,18.143l42.641-64.109l-76.518-8.543l61.994-45.658l-68.98-34.197l73.871-21.701l-53.125-55.73l76.84,4.873
		l-30.861-70.537l70.539,30.859l-4.873-76.84l55.73,53.125L218.821,549.361L218.821,549.361z"/>
	<g>
		<path style="fill:#FFFFFF;" d="M121.62,812.081v12.091h-20.852v-12.091H121.62z"/>
		<path style="fill:#FFFFFF;" d="M191.939,827.732v18.023h-40.244l19.985-37.506l0.684-1.278c0.548-1.004,0.821-1.992,0.821-2.966
			c0-2.464-1.445-3.696-4.335-3.696c-1.125,0-2.114,0.426-2.966,1.278c-0.821,0.821-1.232,1.795-1.232,2.92
			c0,1.278,0.548,2.434,1.643,3.468l-7.985,14.236c-3.346-2.068-5.916-4.7-7.711-7.894c-1.795-3.194-2.692-6.723-2.692-10.586
			c0-5.993,2.114-11.118,6.342-15.377c4.228-4.289,9.339-6.434,15.331-6.434c6.023,0,11.133,2.114,15.331,6.342
			c4.228,4.228,6.342,9.369,6.342,15.422c0,3.468-0.776,6.692-2.327,9.673l-7.392,14.373L191.939,827.732L191.939,827.732z"/>
		<path style="fill:#FFFFFF;" d="M239.144,783.472v17.886h-15.331l-0.821,2.829c5.597,1.612,9.734,3.939,12.411,6.981
			c3.681,4.137,5.521,9.095,5.521,14.875c0,6.114-2.251,11.194-6.753,15.24c-4.472,4.015-10.114,6.023-16.928,6.023
			c-4.593,0-9.126-1.202-13.597-3.605V828.37c3.559,1.734,6.692,2.601,9.399,2.601c2.799,0,5.004-0.639,6.616-1.916
			c1.643-1.278,2.464-3.011,2.464-5.202c0-2.464-1.262-4.548-3.787-6.251c-2.494-1.703-5.582-2.555-9.263-2.555
			c-1.399,0-3.255,0.259-5.567,0.776l6.707-32.35L239.144,783.472L239.144,783.472z"/>
		<path style="fill:#FFFFFF;" d="M270.197,782.605c4.502,0,8.35,1.597,11.544,4.791c3.194,3.164,4.791,6.996,4.791,11.498
			c0,4.532-1.597,8.396-4.791,11.59c-3.164,3.164-7.012,4.745-11.544,4.745c-4.502,0-8.35-1.597-11.544-4.791
			c-3.164-3.194-4.745-7.042-4.745-11.544c0-4.472,1.597-8.304,4.791-11.498C261.893,784.202,265.726,782.605,270.197,782.605
			L270.197,782.605z M270.243,791.731c-1.977,0-3.665,0.7-5.065,2.099c-1.399,1.399-2.099,3.088-2.099,5.065
			c0,1.977,0.7,3.665,2.099,5.065s3.088,2.099,5.065,2.099c1.977,0,3.665-0.7,5.065-2.099c1.399-1.399,2.099-3.088,2.099-5.065
			c0-1.977-0.7-3.665-2.099-5.065C273.908,792.431,272.22,791.731,270.243,791.731z M306.289,783.472l-25.141,62.283h-5.567
			l25.278-62.283H306.289z M312.358,813.724c4.472,0,8.304,1.597,11.498,4.791c3.194,3.194,4.791,7.042,4.791,11.544
			c0,4.502-1.597,8.35-4.791,11.544s-7.027,4.791-11.498,4.791c-4.502,0-8.35-1.597-11.544-4.791s-4.791-7.042-4.791-11.544
			s1.597-8.35,4.791-11.544C304.008,815.321,307.856,813.724,312.358,813.724L312.358,813.724z M312.358,822.849
			c-1.977,0-3.665,0.7-5.065,2.099c-1.399,1.399-2.099,3.088-2.099,5.065c0,2.008,0.7,3.711,2.099,5.11
			c1.399,1.399,3.088,2.099,5.065,2.099c1.977,0,3.665-0.7,5.065-2.099c1.399-1.399,2.099-3.103,2.099-5.11
			c0-1.977-0.7-3.666-2.099-5.065C316.023,823.549,314.335,822.849,312.358,822.849z"/>
		<path style="fill:#FFFFFF;" d="M377.11,812.081v12.091h-20.852v-12.091H377.11z"/>
		<path style="fill:#FFFFFF;" d="M156.467,737.1c0,3.317-1.151,6.825-3.453,10.523c-3.045,4.876-7.468,8.656-13.269,11.339
			c-5.348,2.465-11.094,3.698-17.239,3.698h-8.973l9.843-27.898h9.816l-8.348,23.547c3.571,0,7.106-1.097,10.604-3.29
			c3.517-2.193,6.082-4.903,7.695-8.13c1.45-2.846,2.175-5.221,2.175-7.124c0-3.118-0.87-5.357-2.61-6.716
			c-1.559-1.196-3.952-1.795-7.178-1.795h-26.293l4.187-6.852h26.321c4.55,0,8.338,0.961,11.366,2.882
			C154.681,729.55,156.467,732.822,156.467,737.1L156.467,737.1z"/>
		<path style="fill:#FFFFFF;" d="M175.385,733.021c0,1.813-0.707,3.354-2.121,4.622c-1.396,1.269-3.082,1.903-5.057,1.903
			c-2.012,0-3.725-0.634-5.139-1.903c-1.396-1.269-2.094-2.81-2.094-4.622c0-1.795,0.698-3.326,2.094-4.595
			c1.414-1.269,3.127-1.903,5.139-1.903c1.976,0,3.662,0.634,5.057,1.903C174.678,729.695,175.385,731.227,175.385,733.021z
			 M177.342,758.308c-0.471,1.595-1.45,2.773-2.937,3.535c-1.069,0.544-2.23,0.816-3.48,0.816h-10.74
			c-2.592,0-3.888-1.088-3.888-3.263c0-0.616,0.127-1.278,0.381-1.985l4.731-13.242h9.87l-5.03,14.139L177.342,758.308
			L177.342,758.308z"/>
		<path style="fill:#FFFFFF;" d="M209.448,758.309c-0.073,1.214-0.77,2.248-2.094,3.1c-1.305,0.834-2.737,1.251-4.296,1.251h-20.665
			c-3.97,0-5.955-1.215-5.955-3.644c0-0.218,0.018-0.453,0.054-0.707c0.145-1.088,0.725-1.931,1.74-2.529
			c0.87-0.526,1.867-0.779,2.991-0.761c1.958,0.054,4.613,1.133,7.967,3.236c0.961-1.196,1.441-2.411,1.441-3.643
			c0-0.616-0.39-2.021-1.169-4.215l-3.073,2.801h-5.438l7.233-6.689c-0.326-0.562-0.553-1.024-0.68-1.387
			c-0.236-0.671-0.363-1.432-0.381-2.284l6.689-7.124c3.009,0.508,4.514,1.876,4.514,4.106c0,1.305-0.39,2.511-1.169,3.616
			c0.671,1.776,1.35,3.553,2.039,5.329c0.834,2.284,1.251,4.133,1.251,5.547c0,1.559-0.616,2.891-1.849,3.997H209.448
			L209.448,758.309z"/>
		<path style="fill:#FFFFFF;" d="M242.668,758.309c-0.399,1.414-1.233,2.511-2.502,3.29c-1.16,0.707-2.511,1.06-4.051,1.06h-16.369
			c-3.118,0-5.737-0.526-7.858-1.577c-2.683-1.323-4.024-3.317-4.024-5.982c0-0.29,0.018-0.589,0.054-0.897
			c0.363-3.245,2.048-5.783,5.057-7.613c2.647-1.613,5.773-2.42,9.381-2.42h6.852c1.541,0,2.855,0.489,3.943,1.468
			s1.631,2.175,1.631,3.589c0,1.432-0.553,2.647-1.659,3.644c-1.088,0.997-2.393,1.495-3.915,1.495
			c-1.541,0-2.855-0.499-3.943-1.495c-1.07-1.015-1.595-2.248-1.577-3.698c0,0,0-0.217,0-0.653h-3.29l-2.121,6.009
			c-0.181,0.508-0.272,0.97-0.272,1.387c0,1.595,1.26,2.393,3.78,2.393H242.668L242.668,758.309z"/>
		<path style="fill:#FFFFFF;" d="M287.743,744.169c-0.725,2.9-2.9,4.351-6.526,4.35h-17.021c0.598,0.399,1.088,1.133,1.468,2.202
			c0.381,1.051,0.535,1.967,0.462,2.746c-0.254,3.027-1.586,5.402-3.997,7.124c-2.302,1.65-5.293,2.483-8.973,2.502
			c-4.278,0.036-7.568-0.807-9.87-2.529c-2.048-1.523-3.073-3.526-3.073-6.009c0-0.489,0.045-0.979,0.136-1.468
			c0.471-2.737,1.831-4.885,4.079-6.444c2.393-1.65,5.583-2.474,9.571-2.474L287.743,744.169L287.743,744.169z M258.105,748.52
			h-6.227l-2.447,6.961c-0.127,0.363-0.19,0.707-0.19,1.033c0,1.559,1.45,2.338,4.351,2.338c0.344,0,0.644-0.009,0.897-0.027
			L258.105,748.52L258.105,748.52z"/>
		<path style="fill:#FFFFFF;" d="M309.162,758.309c-0.381,1.505-1.215,2.647-2.502,3.426c-1.015,0.616-2.094,0.925-3.236,0.925
			h-11.366c-2.665,0-3.997-0.852-3.997-2.556c-1.414,1.704-3.326,2.556-5.737,2.556h-4.786c-1.468,0-2.61-0.381-3.426-1.142
			c-0.761-0.707-1.142-1.641-1.142-2.801c0-0.653,0.127-1.323,0.381-2.012l4.568-12.535h9.87l-5.085,14.139h5.52l5.057-14.139h9.761
			l-4.949,14.139H309.162L309.162,758.309z"/>
		<path style="fill:#FFFFFF;" d="M345.536,758.309c-0.471,1.595-1.514,2.773-3.127,3.535c-1.142,0.544-2.366,0.816-3.671,0.816
			h-10.849c-2.483,0-3.725-0.816-3.725-2.447c0-0.544,0.127-1.178,0.381-1.903l2.066-5.846l-9.354,7.912
			c-2.193,1.523-3.997,2.284-5.411,2.284h-5.003l6.499-18.49h9.816l-3.073,8.701l8.293-6.798c2.248-1.831,4.686-2.71,7.314-2.637
			c1.776,0.073,2.665,1.015,2.665,2.828c0,0.671-0.145,1.423-0.435,2.257l-3.508,9.789L345.536,758.309L345.536,758.309z"/>
		<path style="fill:#FFFFFF;" d="M368.641,758.309c-0.852,2.9-3.118,4.351-6.798,4.351h-13.867c-2.683,0-4.024-0.943-4.024-2.828
			c0-0.471,0.1-0.979,0.299-1.523l3.453-9.789h-4.459l1.713-4.35c3.172-0.816,5.529-1.858,7.07-3.127
			c1.74-1.432,3.598-4.024,5.574-7.777h5.302l-3.834,10.904h7.015c-1.124,2.9-3.408,4.35-6.852,4.35h-1.795l-3.399,9.789H368.641z"
			/>
	</g>
</g>
<g>
</g>
<g>
</g>
<g>
</g>
<g>
</g>
<g>
</g>
<g>
</g>
<g>
</g>
<g>
</g>
<g>
</g>
<g>
</g>
<g>
</g>
<g>
</g>
<g>
</g>
<g>
</g>
<g>
</g>
</svg>
